<svg width="32px" height="32px" viewBox="0 0 32 32" xmlns="http://www.w3.org/2000/svg" xmlns:xlink="http://www.w3.org/1999/xlink">
  <defs>
    <clipPath id="clip-lock">
      <rect width="32" height="32"/>
    </clipPath>
  </defs>
  <g id="lock" clip-path="url(#clip-lock)">
    <g id="Group_2295" data-name="Group 2295" transform="translate(-156 -312)">
      <g id="Group_2285" data-name="Group 2285">
        <g id="Group_2284" data-name="Group 2284">
          <g id="Group_2283" data-name="Group 2283">
            <g id="Group_2282" data-name="Group 2282">
              <g id="Group_2281" data-name="Group 2281">
                <g id="Group_2280" data-name="Group 2280">
                  <g id="Group_2279" data-name="Group 2279">
                    <g id="Group_2278" data-name="Group 2278">
                      <g id="Group_2277" data-name="Group 2277">
                        <path id="Path_3827" data-name="Path 3827" d="M181.668,323.543a1.2,1.2,0,0,0,.037-.289,9.705,9.705,0,1,0-19.41,0,1.257,1.257,0,0,0,.036.289,4.375,4.375,0,0,0-2.13,3.749v10.784a4.381,4.381,0,0,0,4.376,4.376h14.846a4.381,4.381,0,0,0,4.376-4.376V327.292A4.374,4.374,0,0,0,181.668,323.543ZM172,316.049a7.208,7.208,0,0,1,7.188,6.867H164.812A7.206,7.206,0,0,1,172,316.049Zm9.3,22.027a1.877,1.877,0,0,1-1.876,1.875H164.577a1.878,1.878,0,0,1-1.876-1.875V327.292a1.878,1.878,0,0,1,1.876-1.875h14.846a1.878,1.878,0,0,1,1.876,1.875Z" fill="#344952"/>
                      </g>
                    </g>
                  </g>
                </g>
              </g>
            </g>
          </g>
        </g>
      </g>
      <g id="Group_2294" data-name="Group 2294">
        <g id="Group_2293" data-name="Group 2293">
          <g id="Group_2292" data-name="Group 2292">
            <g id="Group_2291" data-name="Group 2291">
              <g id="Group_2290" data-name="Group 2290">
                <g id="Group_2289" data-name="Group 2289">
                  <g id="Group_2288" data-name="Group 2288">
                    <g id="Group_2287" data-name="Group 2287">
                      <g id="Group_2286" data-name="Group 2286">
                        <path id="Path_3828" data-name="Path 3828" d="M174.343,331.513a2.344,2.344,0,1,0-3.789,1.832l-.428,4.074a.312.312,0,0,0,.311.345h3.138a.314.314,0,0,0,.313-.313.307.307,0,0,0-.024-.118l-.42-3.988A2.328,2.328,0,0,0,174.343,331.513Z" fill="#344952"/>
                      </g>
                    </g>
                  </g>
                </g>
              </g>
            </g>
          </g>
        </g>
      </g>
    </g>
  </g>
</svg>
